<?xml version="1.0" encoding="UTF-8"?>
<svg width="90px" height="90px" viewBox="0 0 90 90" version="1.1" xmlns="http://www.w3.org/2000/svg" xmlns:xlink="http://www.w3.org/1999/xlink">
    <!-- Generator: Sketch 48.2 (47327) - http://www.bohemiancoding.com/sketch -->
    <title>Artboard Copy</title>
    <desc>Created with Sketch.</desc>
    <defs></defs>
    <g id="Page-1" stroke="none" stroke-width="1" fill="none" fill-rule="evenodd">
        <g id="Artboard-Copy" fill="#333333">
            <path d="M58.7734709,49.4347174 C54.2971483,48.9102822 51.3925612,48.6480466 50.0597052,48.6480466 C48.8367875,48.6480466 44.524651,47.6026591 37.1232958,48.0441784 C36.213939,48.098425 34.1610754,48.4577569 30.9647051,49.1221741 L30.9647109,49.1222023 C30.6564663,49.186276 30.3494137,49.2017087 30.0515254,49.1737288 C29.7756889,50.7906764 28.5514204,52.0973108 26.9334903,52.4647908 L26.6359831,52.5323635 C25.553208,52.7782939 24.4760793,52.0998971 24.2301489,51.017122 C24.1622992,50.7183955 24.1636107,50.4081145 24.2339831,50.1099722 L24.2340119,50.109979 C24.991228,46.9019317 25.369836,44.9374492 25.369836,44.2165316 C25.369836,43.7666575 25.222401,43.1273927 24.9275311,42.2987373 L24.9275505,42.2987304 C24.4673841,41.0055523 25.1426736,39.5841857 26.4358517,39.1240192 C26.703333,39.0288383 26.9851454,38.9801921 27.2690567,38.9801921 C29.1514965,38.9801921 30.6810013,40.4912863 30.7107389,42.3666425 C30.8165269,42.357707 30.9235614,42.3531484 31.0316606,42.3531484 C31.0413582,42.3531484 31.0510557,42.3531859 31.060753,42.3532609 L31.0607533,42.353227 C35.5283394,42.3877714 38.2739065,42.3757993 39.2974545,42.3173109 C40.5844352,42.2437691 44.1718521,42.6658182 50.0597052,43.583458 L58.9415861,42.6952699 C59.0003114,42.6893974 59.0588391,42.6850394 59.1171303,42.6821641 C59.3545273,41.1104469 59.711778,39.8764562 60.1888823,38.9801921 C60.9649919,37.5222319 62.7760632,36.9694827 64.2340234,37.7455923 C65.5348903,38.438077 66.1373806,39.9750078 65.6536713,41.367062 C65.0674561,43.054119 64.723031,44.2444004 64.6203973,44.9379065 C64.5185723,45.6259485 64.4879036,46.9523657 64.5283914,48.9171581 C64.5634251,50.6171663 63.4202446,52.1162926 61.7715663,52.5323635 C60.4892227,52.8559838 59.1873318,52.0787851 58.8637115,50.7964416 C58.8207006,50.6260113 58.7965851,50.4513635 58.7918008,50.2756549 C58.7840319,49.990686 58.7779251,49.7103734 58.7734709,49.4347174 Z" id="Combined-Shape" transform="translate(45.000000, 45.000000) rotate(-45.000000) translate(-45.000000, -45.000000) "></path>
            <path d="M58.7734709,49.4347174 C54.2971483,48.9102822 51.3925612,48.6480466 50.0597052,48.6480466 C48.8367875,48.6480466 44.524651,47.6026591 37.1232958,48.0441784 C36.213939,48.098425 34.1610754,48.4577569 30.9647051,49.1221741 L30.9647109,49.1222023 C30.6564663,49.186276 30.3494137,49.2017087 30.0515254,49.1737288 C29.7756889,50.7906764 28.5514204,52.0973108 26.9334903,52.4647908 L26.6359831,52.5323635 C25.553208,52.7782939 24.4760793,52.0998971 24.2301489,51.017122 C24.1622992,50.7183955 24.1636107,50.4081145 24.2339831,50.1099722 L24.2340119,50.109979 C24.991228,46.9019317 25.369836,44.9374492 25.369836,44.2165316 C25.369836,43.7666575 25.222401,43.1273927 24.9275311,42.2987373 L24.9275505,42.2987304 C24.4673841,41.0055523 25.1426736,39.5841857 26.4358517,39.1240192 C26.703333,39.0288383 26.9851454,38.9801921 27.2690567,38.9801921 C29.1514965,38.9801921 30.6810013,40.4912863 30.7107389,42.3666425 C30.8165269,42.357707 30.9235614,42.3531484 31.0316606,42.3531484 C31.0413582,42.3531484 31.0510557,42.3531859 31.060753,42.3532609 L31.0607533,42.353227 C35.5283394,42.3877714 38.2739065,42.3757993 39.2974545,42.3173109 C40.5844352,42.2437691 44.1718521,42.6658182 50.0597052,43.583458 L58.9415861,42.6952699 C59.0003114,42.6893974 59.0588391,42.6850394 59.1171303,42.6821641 C59.3545273,41.1104469 59.711778,39.8764562 60.1888823,38.9801921 C60.9649919,37.5222319 62.7760632,36.9694827 64.2340234,37.7455923 C65.5348903,38.438077 66.1373806,39.9750078 65.6536713,41.367062 C65.0674561,43.054119 64.723031,44.2444004 64.6203973,44.9379065 C64.5185723,45.6259485 64.4879036,46.9523657 64.5283914,48.9171581 C64.5634251,50.6171663 63.4202446,52.1162926 61.7715663,52.5323635 C60.4892227,52.8559838 59.1873318,52.0787851 58.8637115,50.7964416 C58.8207006,50.6260113 58.7965851,50.4513635 58.7918008,50.2756549 C58.7840319,49.990686 58.7779251,49.7103734 58.7734709,49.4347174 Z" id="Combined-Shape" transform="translate(45.000000, 45.000000) scale(-1, 1) rotate(-45.000000) translate(-45.000000, -45.000000) "></path>
        </g>
    </g>
</svg>