<?xml version="1.0" encoding="UTF-8"?>
<svg width="90px" height="90px" viewBox="0 0 90 90" version="1.1" xmlns="http://www.w3.org/2000/svg" xmlns:xlink="http://www.w3.org/1999/xlink">
    <!-- Generator: Sketch 48.2 (47327) - http://www.bohemiancoding.com/sketch -->
    <title>Artboard</title>
    <desc>Created with Sketch.</desc>
    <defs></defs>
    <g id="Page-1" stroke="none" stroke-width="1" fill="none" fill-rule="evenodd">
        <g id="Artboard" fill="#333333">
            <path d="M31.653179,68.7116537 C29.3330603,68.1463726 27.5039612,67.185709 27.6973668,65.3072645 C27.8080717,64.2320479 28.1267791,62.5642541 29.1530709,62.1753904 C29.9197501,61.8848943 31.2564162,62.6878561 32.2485052,62.9295719 C33.4085906,63.2122188 34.7981524,63.6171195 35.4950035,64.4178684 C36.1918233,65.2185812 36.1959604,66.4151274 36.0992598,67.3543285 C35.9058542,69.232773 33.9732977,69.2769348 31.653179,68.7116537 Z" id="Oval-2" transform="translate(31.913605, 65.570849) rotate(85.000000) translate(-31.913605, -65.570849) "></path>
            <path d="M55.8259682,68.7116537 C53.5058496,68.1463726 51.6767504,67.185709 51.8701561,65.3072645 C51.9808609,64.2320479 52.2995684,62.5642541 53.3258602,62.1753904 C54.0925394,61.8848943 55.4292055,62.6878561 56.4212944,62.9295719 C57.5813798,63.2122188 58.9709417,63.6171195 59.6677928,64.4178684 C60.3646125,65.2185812 60.3687497,66.4151274 60.272049,67.3543285 C60.0786434,69.232773 58.1460869,69.2769348 55.8259682,68.7116537 Z" id="Oval-2-Copy-3" transform="translate(56.086395, 65.570849) rotate(85.000000) translate(-56.086395, -65.570849) "></path>
            <path d="M39.9260806,68.7116537 C37.605962,68.1463726 35.7768628,67.185709 35.9702685,65.3072645 C36.0809733,64.2320479 36.3996808,62.5642541 37.4259726,62.1753904 C38.1926518,61.8848943 39.5293179,62.6878561 40.5214068,62.9295719 C41.6814922,63.2122188 43.0710541,63.6171195 43.7679052,64.4178684 C44.4647249,65.2185812 44.4688621,66.4151274 44.3721614,67.3543285 C44.1787558,69.232773 42.2461993,69.2769348 39.9260806,68.7116537 Z" id="Oval-2-Copy" transform="translate(40.186507, 65.570849) rotate(71.000000) translate(-40.186507, -65.570849) "></path>
            <path d="M48.1989823,68.7116537 C45.8788636,68.1463726 44.0497645,67.185709 44.2431701,65.3072645 C44.353875,64.2320479 44.6725824,62.5642541 45.6988742,62.1753904 C46.4655534,61.8848943 47.8022195,62.6878561 48.7943085,62.9295719 C49.9543939,63.2122188 51.3439557,63.6171195 52.0408068,64.4178684 C52.7376265,65.2185812 52.7417637,66.4151274 52.6450631,67.3543285 C52.4516575,69.232773 50.519101,69.2769348 48.1989823,68.7116537 Z" id="Oval-2-Copy-2" transform="translate(48.459409, 65.570849) rotate(85.000000) translate(-48.459409, -65.570849) "></path>
            <path d="M37.8281942,64.0891339 C24.5843006,64.0891339 23.9934688,52.4113582 21.2265237,42.5301633 C19.6693224,36.969153 20.0744959,31.1768178 23.9934688,27.2592258 C28.3768048,22.8774345 37.2920752,20.9711928 44.2843994,20.9711928 C50.8838833,20.9711928 59.316993,21.1652765 63.6530149,24.5643545 C68.0185541,27.9865716 70.7226701,32.506896 69.1869051,40.7335824 C67.342275,50.6147773 65.497645,56.9028104 59.9637548,61.3942626 C56.0734528,64.551735 43.3115571,64.0891339 37.8281942,64.0891339 Z M51.8004531,45.3479067 C54.3611597,46.6526518 56.14719,46.4094616 57.334736,44.0787714 C58.522282,41.7480811 58.0000312,39.5109643 55.4393247,38.2062191 C52.8786182,36.901474 50.4082857,37.6137934 49.2207397,39.9444837 C48.0331937,42.275174 49.2397466,44.0431615 51.8004531,45.3479067 Z M38.2937729,46.979984 C42.0448708,45.3877373 43.4828805,43.4012203 42.2228786,40.4328418 C40.9628767,37.4644634 38.1839804,36.2920495 34.4328825,37.8842961 C30.6817845,39.4765428 29.0769403,42.509744 30.3369422,45.4781225 C31.5969441,48.4465009 34.5426749,48.5722306 38.2937729,46.979984 Z" id="Combined-Shape"></path>
        </g>
    </g>
</svg>